# AST/ASF file generated using VICON BodyLanguage
# -----------------------------------------------
:version 1.10
:name VICON
:units
  mass 1.0
  length 0.45
  angle deg
:documentation
   .ast/.asf automatically generated from VICON data using
   VICON BodyBuilder and BodyLanguage model FoxedUp or BRILLIANT.MOD
:root
   order TX TY TZ RX RY RZ
   axis XYZ
   position 0 0 0  
   orientation 0 0 0 
:bonedata
  begin
     id 1 
     name lhipjoint
     direction 0.700308 -0.549349 0.455834 
     length 2.59063 
     axis 0 0 0  XYZ
  end
  begin
     id 2 
     name lfemur
     direction 0.34202 -0.939693 0  
     length 6.31066  
     axis 0 0 20  XYZ
    dof rx ry rz
    limits (-160.0 20.0)
           (-70.0 70.0)
           (-60.0 70.0)
  end
  begin
     id 3 
     name ltibia
     direction 0.34202 -0.939693 0   
     length 7.36093   
     axis 0 0 20   XYZ
    dof rx
    limits (-10.0 170.0)
  end
  begin
     id 4 
     name lfoot
     direction 0.0905332 -0.248738 0.96433   
     length 2.0233   
     axis -90 7.62852e-016 20   XYZ
    dof rx rz
    limits (-45.0 90.0)
           (-70.0 20.0)
  end
  begin
     id 5 
     name ltoes
     direction 1.53573e-011 -4.21855e-011 1   
     length 1.01524   
     axis -90 7.62852e-016 20   XYZ
    dof rx
    limits (-90.0 20.0)
  end
  begin
     id 6 
     name rhipjoint
     direction -0.61416 -0.607328 0.503944   
     length 2.34332  
     axis 0 0 0  XYZ 
  end
  begin
     id 7 
     name rfemur
     direction -0.34202 -0.939693 0   
     length 6.58548   
     axis 0 0 -20   XYZ
    dof rx ry rz
    limits (-160.0 20.0)
           (-70.0 70.0)
           (-70.0 60.0)
  end
  begin
     id 8 
     name rtibia
     direction -0.34202 -0.939693 0   
     length 7.20707   
     axis 0 0 -20   XYZ
    dof rx
    limits (-10.0 170.0)
 end
 begin
     id 9 
     name rfoot
     direction -0.136772 -0.375778 0.916561   
     length 1.92184  
     axis -90 -7.62852e-016 -20   XYZ
    dof rx rz
    limits (-45.0 90.0)
           (-20.0 70.0)
  end
  begin
     id 10 
     name rtoes
     direction -1.53535e-011 -4.21828e-011 1   
     length 0.951089   
     axis -90 -7.62852e-016 -20   XYZ
    dof rx
    limits (-90.0 20.0)
  end
  begin
     id 11 
     name lowerback
     direction -0.0444974 0.988086 -0.147332   
     length 1.9609   
     axis 0 0 0   XYZ
    dof rx ry rz
    limits (-20.0 45.0)
           (-30.0 30.0)
           (-30.0 30.0)
  end
  begin
     id 12 
     name upperback
     direction 0.00613146 0.999513 0.0306081   
     length 1.94944   
     axis 0 0 0   XYZ
    dof rx ry rz
    limits (-20.0 45.0)
           (-30.0 30.0)
           (-30.0 30.0)
  end
  begin
     id 13 
     name thorax
     direction 0.0254621 0.994518 0.101418   
     length 2.0119   
     axis 0 0 0   XYZ
    dof rx ry rz
    limits (-20.0 45.0)
           (-30.0 30.0)
           (-30.0 30.0)
  end
  begin
     id 14 
     name lowerneck
     direction 0.0168698 0.977854 0.208608   
     length 1.6375   
     axis 0 0 0   XYZ
    dof rx ry rz
    limits (-20.0 45.0)
           (-30.0 30.0)
           (-30.0 30.0)
  end
  begin
     id 15 
     name upperneck
     direction -0.0283988 0.989338 -0.142843   
     length 1.6851   
     axis 0 0 0   XYZ
    dof rx ry rz
    limits (-20.0 45.0)
           (-30.0 30.0)
           (-30.0 30.0)
  end
  begin
     id 16
     name head
     direction -0.0129422 0.99741 -0.0707489  
     length 1.69029  
     axis 0 0 0   XYZ
    dof rx ry rz
    limits (-20.0 45.0)
           (-30.0 30.0)
           (-30.0 30.0)
  end
  begin
     id 17 
     name lclavicle
     direction 0.820295 0.564628 -0.0911715  
     length 3.16484  
     axis 0 0 0   XYZ
    dof ry rz
    limits (-20.0 10.0)
           (0.0 20.0)
  end
  begin
     id 18 
     name lhumerus
     direction 1 -4.48969e-011 1.00186e-027   
     length 5.17853   
     axis 180 -30 -90   XYZ
    dof rx ry rz
    limits (-60.0 90.0)
           (-90.0 90.0)
           (-90.0 90.0)
  end
  begin
     id 19
     name lradius
     direction 1 -4.48966e-011 -1.52922e-027   
     length 3.40399   
     axis 180 -30 -90   XYZ
    dof rx
    limits (-10.0 170.0)
  end
  begin
     id 20
     name lwrist
     direction 1 -4.48981e-011 -3.80893e-027   
     length 1.70199   
     axis 1.1049e-015 90 90   XYZ
    dof ry
    limits (-180.0 0.0)
 end
  begin
     id 21 
     name lhand
     direction 1 -4.48957e-011 -7.61786e-027   
     length 0.708964   
     axis 4.86085e-015 90 90   XYZ
    dof rx rz
    limits (-90.0 90.0)
           (-45.0 45.0)
  end
  begin
     id 22 
     name lfingers
     direction 1 -4.48929e-011 -1.52357e-026   
     length 0.571585   
     axis 9.7217e-015 90 90   XYZ
    dof rx
    limits (0.0 90.0)
  end
  begin
     id 23
     name lthumb
     direction 0.707107 -6.34905e-011 0.707107   
     length 0.820685   
     axis -90 45 2.85299e-015   XYZ
    dof rx rz
    limits (-45.0 45.0)
           (-45.0 45.0)
  end
  begin
     id 24 
     name rclavicle
     direction -0.858602 0.463947 -0.218075   
     length 3.35137  
     axis 0 0 0   XYZ 
    dof ry rz
    limits (-10.0 20.0)
           (-20.0 0.0)
  end
  begin
     id 25 
     name rhumerus
     direction -1 -4.48969e-011 -1.98511e-027  
     length 5.42351   
     axis 180 30 90   XYZ
    dof rx ry rz
    limits (-90.0 60.0)
           (-90.0 90.0)
           (-90.0 90.0)
  end
  begin
     id 26 
     name rradius
     direction -1 -4.48961e-011 -2.82624e-027   
     length 3.42066   
     axis 180 30 90   XYZ
    dof rx
    limits (-10.0 170.0)
  end
  begin
     id 27 
     name rwrist
     direction -1 -4.48966e-011 -3.80893e-027   
     length 1.71033   
     axis 1.1049e-015 -90 -90   XYZ
    dof ry
    limits (-180.0 0.0)
  end
  begin
     id 28
     name rhand
     direction -1 -4.48964e-011 -7.61786e-027   
     length 0.743608   
     axis 4.86085e-015 -90 -90   XYZ
    dof rx rz
    limits (-90.0 90.0)
           (-45.0 45.0)
  end
  begin
     id 29
     name rfingers
     direction -1 -4.48961e-011 -1.52357e-026   
     length 0.599516   
     axis 9.7217e-015 -90 -90   XYZ
    dof rx
    limits (0.0 90.0)
  end
  begin
     id 30
     name rthumb
     direction -0.707107 -6.34913e-011 0.707107   
     length 0.860789   
     axis -90 -45 -2.85299e-015   XYZ
    dof rx rz
    limits (-45.0 45.0)
           (-45.0 45.0)
  end
:hierarchy
  begin
    root lhipjoint rhipjoint lowerback
    lhipjoint lfemur
    lfemur ltibia
    ltibia lfoot
    lfoot ltoes
    rhipjoint rfemur
    rfemur rtibia
    rtibia rfoot
    rfoot rtoes
    lowerback upperback
    upperback thorax
    thorax lowerneck lclavicle rclavicle
    lowerneck upperneck
    upperneck head
    lclavicle lhumerus
    lhumerus lradius
    lradius lwrist
    lwrist lhand lthumb
    lhand lfingers
    rclavicle rhumerus
    rhumerus rradius
    rradius rwrist
    rwrist rhand rthumb
    rhand rfingers
  end

#!OML:ASF E:\mmandel\Project 1\Capture day 1\Session 2\Subject.ASF
:FULLY-SPECIFIED
:DEGREES
1035
root 6.10085 14.7823 -1.59859 84.3696 82.726 -296.913
lowerback 30.629 1.39541 -2.49129
upperback 2.54337 1.11022 -1.09815
thorax -13.2223 0.733832 -0.292696
lowerneck -22.9179 1.60275 3.73214
upperneck 6.55506 1.85683 -5.39254
head 5.71551 0.607347 -2.12513
rclavicle 3.57812e-015 -8.74653e-015
rhumerus -1.58656 -0.751146 -79.1946
rradius 65.6139
rwrist -16.6546
rhand -12.1605 25.1587
rfingers 7.12502
rthumb 13.9023 -4.35658
lclavicle 3.57812e-015 -8.74653e-015
lhumerus -17.2452 -19.365 77.5453
lradius 74.6777
lwrist 35.598
lhand -18.5067 -25.0811
lfingers 7.12502
lthumb 7.78125 4.75567
rfemur -61.7864 -10.5411 8.44002
rtibia 66.7677
rfoot -27.3178 -5.54407
rtoes -13.3019
lfemur -55.6109 14.0037 -20.0798
ltibia 56.8685
lfoot -19.1358 -5.68688
ltoes -4.86172
1036
root 6.10099 14.7766 -1.63538 82.7966 82.8826 -298.486
lowerback 30.5886 1.38418 -2.41989
upperback 2.55994 1.12703 -1.0533
thorax -13.1861 0.738014 -0.288365
lowerneck -23.0461 1.5105 3.82787
upperneck 6.52558 1.71747 -5.50224
head 5.72113 0.532368 -2.19198
rclavicle 9.93923e-015 -1.35174e-014
rhumerus -1.51568 -0.587016 -79.218
rradius 65.3908
rwrist -16.8357
rhand -12.216 24.534
rfingers 7.12502
rthumb 13.8489 -4.98491
lclavicle 9.93923e-015 -1.35174e-014
lhumerus -16.6868 -19.5697 77.1827
lradius 74.4633
lwrist 35.6776
lhand -18.4539 -24.911
lfingers 7.12502
lthumb 7.83226 4.92388
rfemur -61.7885 -10.5867 8.58659
rtibia 66.6952
rfoot -27.205 -5.30188
rtoes -13.019
lfemur -55.7784 14.1594 -20.0168
ltibia 57.1681
lfoot -19.2851 -5.75232
ltoes -4.57302
1037
root 6.1034 14.7766 -1.67346 81.0056 82.8838 -300.257
lowerback 30.5252 1.38143 -2.46297
upperback 2.56203 1.10578 -1.08316
thorax -13.1555 0.729539 -0.287517
lowerneck -22.8906 1.56339 3.83096
upperneck 6.4622 1.78272 -5.46146
head 5.67976 0.569769 -2.1713
rclavicle -4.37326e-015 -2.70347e-014
rhumerus -1.50472 -0.374129 -79.288
rradius 65.1616
rwrist -17.0444
rhand -12.1499 24.0148
rfingers 7.12502
rthumb 13.9125 -5.49978
lclavicle -4.37326e-015 -2.70347e-014
lhumerus -16.2739 -19.8624 76.7636
lradius 74.3183
lwrist 35.8361
lhand -18.5157 -24.7338
lfingers 7.12502
lthumb 7.77258 5.1033
rfemur -61.7393 -10.6054 8.55315
rtibia 66.5956
rfoot -27.0767 -5.05039
rtoes -12.7396
lfemur -55.8806 14.3477 -20.1372
ltibia 57.4222
lfoot -19.3709 -5.77733
ltoes -4.23607
1038
root 6.10396 14.7738 -1.70948 79.0674 82.7683 -302.21
lowerback 30.4338 1.42503 -2.63241
upperback 2.57343 1.09828 -1.15195
thorax -13.1025 0.733157 -0.264806
lowerneck -22.8179 1.76925 3.86049
upperneck 6.49311 2.05244 -5.47687
head 5.69217 0.700963 -2.15052
rclavicle -3.26007e-014 -2.14687e-014
rhumerus -1.65246 -0.20846 -79.3717
rradius 65.0938
rwrist -17.2223
rhand -12.0113 23.8287
rfingers 7.12502
rthumb 14.0461 -5.67668
lclavicle -3.26007e-014 -2.14687e-014
lhumerus -15.8224 -20.1488 76.3597
lradius 74.1094
lwrist 35.8816
lhand -18.5988 -24.5279
lfingers 7.12502
lthumb 7.69239 5.31217
rfemur -61.7613 -10.494 8.37237
rtibia 66.5023
rfoot -26.9706 -4.85993
rtoes -12.4514
lfemur -55.9797 14.5055 -20.3272
ltibia 57.6482
lfoot -19.4109 -5.72305
ltoes -3.78826
1039
root 6.10165 14.7714 -1.74492 77.9717 82.7196 -303.295
lowerback 30.383 1.44265 -2.744
upperback 2.61469 1.08594 -1.16987
thorax -13.0334 0.733375 -0.217296
lowerneck -22.4967 1.90138 3.65469
upperneck 6.25928 2.28191 -5.41352
head 5.57635 0.819574 -2.07041
rclavicle -3.10104e-014 -1.15295e-014
rhumerus -1.78869 -0.17176 -79.4159
rradius 65.0513
rwrist -17.3074
rhand -11.7524 23.6769
rfingers 7.12502
rthumb 14.2956 -5.81104
lclavicle -3.10104e-014 -1.15295e-014
lhumerus -15.2442 -20.4397 75.9846
lradius 73.8993
lwrist 36.0981
lhand -18.7119 -24.1544
lfingers 7.12502
lthumb 7.58321 5.68964
rfemur -61.7426 -10.4237 8.21344
rtibia 66.4233
rfoot -26.9086 -4.71576
rtoes -12.2024
lfemur -56.0694 14.5835 -20.4662
ltibia 57.8628
lfoot -19.4657 -5.71206
ltoes -3.62551
1040
root 6.10341 14.7743 -1.78067 76.1455 82.8185 -304.998
lowerback 30.4337 1.44551 -2.66017
upperback 2.66153 1.11842 -1.17773
thorax -13.0018 0.744113 -0.28406
lowerneck -22.3951 1.93492 3.5138
upperneck 6.28366 2.34713 -5.24786
head 5.56734 0.861169 -1.98724
rclavicle -1.07344e-014 -2.38542e-015
rhumerus -1.88855 -0.202763 -79.5191
rradius 64.9575
rwrist -17.3695
rhand -11.4438 23.4356
rfingers 7.12502
rthumb 14.593 -6.03103
lclavicle -1.07344e-014 -2.38542e-015
lhumerus -14.6798 -20.8402 75.5556
lradius 73.7385
lwrist 36.5351
lhand -18.775 -23.6528
lfingers 7.12502
lthumb 7.52232 6.19342
rfemur -61.5716 -10.2737 8.22015
rtibia 66.374
rfoot -26.9424 -4.5389
rtoes -11.6178
lfemur -56.0298 14.7037 -20.3935
ltibia 58.1018
lfoot -19.5673 -5.70177
ltoes -3.74663
1041
root 6.10318 14.7698 -1.81468 74.9848 82.9256 -306.187
lowerback 30.4216 1.41873 -2.58781
upperback 2.62485 1.10144 -1.20115
thorax -13.0371 0.731299 -0.342017
lowerneck -22.5573 1.90558 3.60765
upperneck 6.47645 2.27645 -5.21402
head 5.65092 0.826848 -1.99961
rclavicle 3.18055e-015 -3.37934e-014
rhumerus -1.97287 -0.150878 -79.6081
rradius 64.8147
rwrist -17.4933
rhand -11.21 23.1581
rfingers 7.12502
rthumb 14.8182 -6.29206
lclavicle 3.18055e-015 -3.37934e-014
lhumerus -14.1758 -21.1809 75.169
lradius 73.4609
lwrist 36.9148
lhand -18.7047 -23.4239
lfingers 7.12502
lthumb 7.59016 6.41988
rfemur -61.6279 -10.2524 8.27669
rtibia 66.3334
rfoot -26.8594 -4.48535
rtoes -11.3429
lfemur -56.2151 14.7013 -20.344
ltibia 58.3516
lfoot -19.7051 -5.54612
ltoes -4.26005
